<svg xmlns="http://www.w3.org/2000/svg" xmlns:xlink="http://www.w3.org/1999/xlink" width="500" zoomAndPan="magnify" viewBox="0 0 375 374.999991" height="500" preserveAspectRatio="xMidYMid meet" version="1.0"><defs><g/><clipPath id="523fa6230a"><path d="M 117 103.988281 L 186.753906 103.988281 L 186.753906 231 L 117 231 Z M 117 103.988281 " clip-rule="nonzero"/></clipPath></defs><g clip-path="url(#523fa6230a)"><path fill="#d9d9d9" d="M 147.980469 128.121094 L 117.496094 128.121094 L 117.496094 136.648438 L 147.980469 136.648438 L 147.980469 166.785156 C 150.539062 169.984375 153.378906 170.511719 156.507812 168.941406 L 156.507812 136.648438 L 186.996094 136.648438 L 186.996094 128.121094 L 156.507812 128.121094 L 156.507812 103.964844 L 147.980469 103.964844 Z M 147.980469 182.949219 L 147.980469 194.511719 C 150.683594 193.113281 153.558594 191.582031 156.507812 189.953125 L 156.507812 182.949219 Z M 147.980469 211.300781 L 147.980469 230.984375 L 156.507812 230.984375 L 156.507812 207.28125 C 153.875 208.988281 151 210.316406 147.980469 211.300781 " fill-opacity="1" fill-rule="evenodd"/></g><path fill="#d9d9d9" d="M 137.757812 203.675781 C 157.4375 232.230469 130.953125 260.328125 100.65625 270.964844 C 116.4375 258.585938 121.644531 246.738281 111.941406 235.332031 C 104.496094 226.566406 95.527344 224.640625 87.949219 213.773438 C 74.25 194.132812 81 167.921875 90.589844 140.152344 C 94.125 164.03125 102.71875 173.007812 115.09375 182.703125 C 115.488281 188.191406 118.5 192.828125 125.121094 193.90625 C 117.277344 200.226562 107.402344 201.59375 98.945312 201.046875 L 109.007812 205.886719 L 137.757812 203.675781 " fill-opacity="1" fill-rule="evenodd"/><path fill="#8c52ff" d="M 80.640625 203.632812 C 79.558594 218.871094 79.855469 234.886719 90.03125 243.351562 C 98.105469 250.066406 103.695312 254.570312 100.691406 268.035156 C 106.25 263.546875 115.046875 255.378906 114.851562 246.921875 C 114.660156 238.8125 106.207031 232.460938 101.117188 229.160156 C 90.078125 222.003906 83.742188 213.324219 80.640625 203.632812 " fill-opacity="1" fill-rule="nonzero"/><path fill="#5e17eb" d="M 182.535156 169.5 C 179.859375 166.082031 175.152344 161.164062 170.65625 160.539062 C 164.222656 159.648438 159.765625 166.675781 155.160156 169.386719 C 151.585938 171.484375 148.378906 170.96875 145.535156 167.019531 C 138.277344 156.953125 136.691406 154.234375 124.265625 150.5 C 111.683594 146.714844 102.953125 149.007812 93.175781 139.53125 C 93.558594 144.769531 94.308594 149.765625 96.867188 153.441406 C 98.691406 156.058594 101.429688 158.003906 105.613281 158.882812 C 101.742188 166.378906 106.308594 175.378906 114.832031 176.070312 C 111.976562 186.273438 120.710938 192.945312 130.203125 192.417969 C 121.453125 201.839844 110.34375 202.488281 96.390625 200.523438 C 103.53125 204.988281 108.433594 208.449219 117.488281 210.441406 C 134.03125 214.085938 154.140625 210.914062 163.320312 195.210938 C 168.765625 185.898438 168.402344 168.113281 182.535156 169.5 " fill-opacity="1" fill-rule="evenodd"/><g fill="#ffffff" fill-opacity="1"><g transform="translate(186.995954, 160.499989)"><g><path d="M 8.609375 0.125 L 1.578125 -8.765625 L 1.578125 -2.8125 C 1.578125 -2.195312 1.613281 -1.710938 1.6875 -1.359375 C 1.769531 -1.015625 1.894531 -0.753906 2.0625 -0.578125 C 2.238281 -0.410156 2.457031 -0.285156 2.71875 -0.203125 L 2.71875 0 L 0.703125 0 L 0.703125 -0.203125 C 0.953125 -0.285156 1.113281 -0.453125 1.1875 -0.703125 C 1.269531 -0.960938 1.3125 -1.363281 1.3125 -1.90625 L 1.3125 -8.59375 C 1.3125 -9.132812 1.257812 -9.53125 1.15625 -9.78125 C 1.050781 -10.039062 0.84375 -10.210938 0.53125 -10.296875 L 0.53125 -10.5 L 2.21875 -10.5 L 8.515625 -2.609375 L 8.515625 -7.6875 C 8.515625 -8.300781 8.472656 -8.78125 8.390625 -9.125 C 8.316406 -9.476562 8.191406 -9.738281 8.015625 -9.90625 C 7.847656 -10.082031 7.632812 -10.210938 7.375 -10.296875 L 7.375 -10.5 L 9.40625 -10.5 L 9.40625 -10.296875 C 9.15625 -10.210938 8.992188 -10.039062 8.921875 -9.78125 C 8.847656 -9.53125 8.8125 -9.132812 8.8125 -8.59375 L 8.8125 0.125 Z M 8.609375 0.125 "/></g></g></g><g fill="#ffffff" fill-opacity="1"><g transform="translate(197.675946, 160.499989)"><g><path d="M 4.015625 0.15625 C 3.597656 0.15625 3.179688 0.0820312 2.765625 -0.0625 C 2.347656 -0.21875 1.960938 -0.445312 1.609375 -0.75 C 1.265625 -1.050781 0.988281 -1.425781 0.78125 -1.875 C 0.570312 -2.320312 0.46875 -2.851562 0.46875 -3.46875 C 0.46875 -4.101562 0.578125 -4.675781 0.796875 -5.1875 C 1.023438 -5.695312 1.328125 -6.128906 1.703125 -6.484375 C 2.085938 -6.847656 2.507812 -7.125 2.96875 -7.3125 C 3.4375 -7.507812 3.914062 -7.609375 4.40625 -7.609375 C 5.09375 -7.609375 5.664062 -7.472656 6.125 -7.203125 C 6.582031 -6.929688 6.925781 -6.585938 7.15625 -6.171875 C 7.394531 -5.765625 7.515625 -5.34375 7.515625 -4.90625 L 1.828125 -4.90625 C 1.816406 -4.820312 1.804688 -4.738281 1.796875 -4.65625 C 1.796875 -4.582031 1.796875 -4.503906 1.796875 -4.421875 C 1.796875 -3.773438 1.921875 -3.195312 2.171875 -2.6875 C 2.429688 -2.175781 2.789062 -1.773438 3.25 -1.484375 C 3.71875 -1.203125 4.269531 -1.0625 4.90625 -1.0625 C 5.46875 -1.0625 5.960938 -1.171875 6.390625 -1.390625 C 6.816406 -1.609375 7.1875 -1.894531 7.5 -2.25 L 7.640625 -2.09375 C 7.410156 -1.75 7.125 -1.40625 6.78125 -1.0625 C 6.4375 -0.71875 6.035156 -0.425781 5.578125 -0.1875 C 5.117188 0.0390625 4.597656 0.15625 4.015625 0.15625 Z M 1.84375 -5.109375 L 6 -5.109375 C 5.9375 -5.523438 5.804688 -5.898438 5.609375 -6.234375 C 5.421875 -6.566406 5.179688 -6.832031 4.890625 -7.03125 C 4.609375 -7.226562 4.289062 -7.328125 3.9375 -7.328125 C 3.519531 -7.335938 3.164062 -7.238281 2.875 -7.03125 C 2.582031 -6.820312 2.351562 -6.546875 2.1875 -6.203125 C 2.019531 -5.867188 1.90625 -5.503906 1.84375 -5.109375 Z M 1.84375 -5.109375 "/></g></g></g><g fill="#ffffff" fill-opacity="1"><g transform="translate(206.43594, 160.499989)"><g><path d="M 0.671875 -5.671875 C 0.523438 -6.191406 0.390625 -6.570312 0.265625 -6.8125 C 0.140625 -7.0625 -0.0078125 -7.222656 -0.1875 -7.296875 L -0.1875 -7.5 L 2.390625 -7.5 L 2.390625 -7.296875 C 2.140625 -7.210938 2.023438 -7.050781 2.046875 -6.8125 C 2.066406 -6.570312 2.148438 -6.191406 2.296875 -5.671875 L 3.4375 -1.65625 L 5.4375 -7.5 L 6.359375 -7.5 L 8.34375 -1.703125 L 9.53125 -5.671875 C 9.675781 -6.191406 9.710938 -6.578125 9.640625 -6.828125 C 9.578125 -7.078125 9.414062 -7.234375 9.15625 -7.296875 L 9.15625 -7.5 L 10.75 -7.5 L 10.75 -7.296875 C 10.53125 -7.222656 10.347656 -7.0625 10.203125 -6.8125 C 10.066406 -6.570312 9.925781 -6.191406 9.78125 -5.671875 L 8.0625 0 L 7.3125 0 L 5.21875 -6.140625 L 3.09375 0 L 2.328125 0 Z M 0.671875 -5.671875 "/></g></g></g><g fill="#ffffff" fill-opacity="1"><g transform="translate(217.80593, 160.499989)"><g/></g></g><g fill="#ffffff" fill-opacity="1"><g transform="translate(221.55593, 160.499989)"><g><path d="M 0.703125 0 L 0.703125 -0.203125 C 0.953125 -0.285156 1.113281 -0.453125 1.1875 -0.703125 C 1.269531 -0.960938 1.3125 -1.363281 1.3125 -1.90625 L 1.3125 -8.59375 C 1.3125 -9.132812 1.269531 -9.53125 1.1875 -9.78125 C 1.113281 -10.039062 0.953125 -10.210938 0.703125 -10.296875 L 0.703125 -10.5 L 4.40625 -10.5 C 5.632812 -10.5 6.5 -10.320312 7 -9.96875 C 7.507812 -9.613281 7.765625 -9.128906 7.765625 -8.515625 C 7.765625 -8.003906 7.578125 -7.539062 7.203125 -7.125 C 6.835938 -6.707031 6.179688 -6.410156 5.234375 -6.234375 C 6.472656 -6.203125 7.40625 -5.929688 8.03125 -5.421875 C 8.65625 -4.910156 8.972656 -4.28125 8.984375 -3.53125 C 8.992188 -3.082031 8.90625 -2.648438 8.71875 -2.234375 C 8.539062 -1.816406 8.253906 -1.4375 7.859375 -1.09375 C 7.472656 -0.757812 6.957031 -0.492188 6.3125 -0.296875 C 5.664062 -0.0976562 4.878906 0 3.953125 0 Z M 2.890625 -1.546875 C 2.890625 -1.003906 2.9375 -0.648438 3.03125 -0.484375 C 3.132812 -0.316406 3.347656 -0.234375 3.671875 -0.234375 L 4.09375 -0.234375 C 5.175781 -0.234375 5.960938 -0.488281 6.453125 -1 C 6.953125 -1.519531 7.203125 -2.175781 7.203125 -2.96875 C 7.203125 -3.863281 6.941406 -4.597656 6.421875 -5.171875 C 5.898438 -5.753906 5.078125 -6.046875 3.953125 -6.046875 L 2.890625 -6.046875 Z M 2.890625 -6.28125 L 4.234375 -6.28125 C 4.785156 -6.28125 5.210938 -6.460938 5.515625 -6.828125 C 5.828125 -7.203125 5.984375 -7.648438 5.984375 -8.171875 C 5.984375 -8.835938 5.765625 -9.351562 5.328125 -9.71875 C 4.890625 -10.082031 4.285156 -10.265625 3.515625 -10.265625 L 2.890625 -10.265625 Z M 2.890625 -6.28125 "/></g></g></g><g fill="#ffffff" fill-opacity="1"><g transform="translate(231.785917, 160.499989)"><g><path d="M 4.015625 0.15625 C 3.597656 0.15625 3.179688 0.0820312 2.765625 -0.0625 C 2.347656 -0.21875 1.960938 -0.445312 1.609375 -0.75 C 1.265625 -1.050781 0.988281 -1.425781 0.78125 -1.875 C 0.570312 -2.320312 0.46875 -2.851562 0.46875 -3.46875 C 0.46875 -4.101562 0.578125 -4.675781 0.796875 -5.1875 C 1.023438 -5.695312 1.328125 -6.128906 1.703125 -6.484375 C 2.085938 -6.847656 2.507812 -7.125 2.96875 -7.3125 C 3.4375 -7.507812 3.914062 -7.609375 4.40625 -7.609375 C 5.09375 -7.609375 5.664062 -7.472656 6.125 -7.203125 C 6.582031 -6.929688 6.925781 -6.585938 7.15625 -6.171875 C 7.394531 -5.765625 7.515625 -5.34375 7.515625 -4.90625 L 1.828125 -4.90625 C 1.816406 -4.820312 1.804688 -4.738281 1.796875 -4.65625 C 1.796875 -4.582031 1.796875 -4.503906 1.796875 -4.421875 C 1.796875 -3.773438 1.921875 -3.195312 2.171875 -2.6875 C 2.429688 -2.175781 2.789062 -1.773438 3.25 -1.484375 C 3.71875 -1.203125 4.269531 -1.0625 4.90625 -1.0625 C 5.46875 -1.0625 5.960938 -1.171875 6.390625 -1.390625 C 6.816406 -1.609375 7.1875 -1.894531 7.5 -2.25 L 7.640625 -2.09375 C 7.410156 -1.75 7.125 -1.40625 6.78125 -1.0625 C 6.4375 -0.71875 6.035156 -0.425781 5.578125 -0.1875 C 5.117188 0.0390625 4.597656 0.15625 4.015625 0.15625 Z M 1.84375 -5.109375 L 6 -5.109375 C 5.9375 -5.523438 5.804688 -5.898438 5.609375 -6.234375 C 5.421875 -6.566406 5.179688 -6.832031 4.890625 -7.03125 C 4.609375 -7.226562 4.289062 -7.328125 3.9375 -7.328125 C 3.519531 -7.335938 3.164062 -7.238281 2.875 -7.03125 C 2.582031 -6.820312 2.351562 -6.546875 2.1875 -6.203125 C 2.019531 -5.867188 1.90625 -5.503906 1.84375 -5.109375 Z M 1.84375 -5.109375 "/></g></g></g><g fill="#ffffff" fill-opacity="1"><g transform="translate(240.545911, 160.499989)"><g><path d="M 2.609375 4.15625 C 2.378906 4.15625 2.128906 4.125 1.859375 4.0625 C 1.585938 4 1.328125 3.898438 1.078125 3.765625 C 0.835938 3.628906 0.632812 3.441406 0.46875 3.203125 C 0.3125 2.972656 0.234375 2.6875 0.234375 2.34375 C 0.234375 1.925781 0.394531 1.523438 0.71875 1.140625 C 1.050781 0.753906 1.503906 0.390625 2.078125 0.046875 C 1.773438 -0.046875 1.53125 -0.179688 1.34375 -0.359375 C 1.164062 -0.546875 1.078125 -0.796875 1.078125 -1.109375 C 1.078125 -1.390625 1.175781 -1.640625 1.375 -1.859375 C 1.582031 -2.078125 1.882812 -2.304688 2.28125 -2.546875 C 1.882812 -2.734375 1.550781 -3.003906 1.28125 -3.359375 C 1.019531 -3.710938 0.890625 -4.171875 0.890625 -4.734375 C 0.890625 -5.265625 1.03125 -5.742188 1.3125 -6.171875 C 1.59375 -6.609375 1.96875 -6.957031 2.4375 -7.21875 C 2.90625 -7.476562 3.40625 -7.609375 3.9375 -7.609375 C 4.332031 -7.609375 4.703125 -7.5625 5.046875 -7.46875 C 5.265625 -7.8125 5.523438 -8.082031 5.828125 -8.28125 C 6.066406 -8.445312 6.316406 -8.578125 6.578125 -8.671875 C 6.847656 -8.765625 7.140625 -8.8125 7.453125 -8.8125 C 7.679688 -8.8125 7.882812 -8.78125 8.0625 -8.71875 C 8.238281 -8.65625 8.328125 -8.554688 8.328125 -8.421875 C 8.328125 -8.328125 8.289062 -8.207031 8.21875 -8.0625 C 8.144531 -7.914062 8.035156 -7.785156 7.890625 -7.671875 C 7.753906 -7.554688 7.582031 -7.5 7.375 -7.5 C 7.195312 -7.5 6.984375 -7.53125 6.734375 -7.59375 C 6.484375 -7.664062 6.144531 -7.773438 5.71875 -7.921875 C 5.570312 -7.804688 5.421875 -7.628906 5.265625 -7.390625 C 5.742188 -7.234375 6.144531 -6.96875 6.46875 -6.59375 C 6.800781 -6.21875 6.96875 -5.707031 6.96875 -5.0625 C 6.96875 -4.632812 6.867188 -4.242188 6.671875 -3.890625 C 6.484375 -3.546875 6.234375 -3.25 5.921875 -3 C 5.609375 -2.75 5.273438 -2.550781 4.921875 -2.40625 C 4.578125 -2.269531 4.25 -2.203125 3.9375 -2.203125 C 3.707031 -2.203125 3.460938 -2.222656 3.203125 -2.265625 C 2.953125 -2.304688 2.710938 -2.367188 2.484375 -2.453125 C 2.359375 -2.378906 2.253906 -2.296875 2.171875 -2.203125 C 2.097656 -2.117188 2.0625 -2.015625 2.0625 -1.890625 C 2.0625 -1.796875 2.097656 -1.703125 2.171875 -1.609375 C 2.242188 -1.515625 2.390625 -1.4375 2.609375 -1.375 C 2.835938 -1.3125 3.179688 -1.265625 3.640625 -1.234375 L 5.65625 -1.109375 C 6.425781 -1.066406 7 -0.945312 7.375 -0.75 C 7.757812 -0.5625 7.953125 -0.203125 7.953125 0.328125 C 7.953125 0.734375 7.800781 1.160156 7.5 1.609375 C 7.207031 2.054688 6.8125 2.472656 6.3125 2.859375 C 5.8125 3.242188 5.238281 3.554688 4.59375 3.796875 C 3.957031 4.035156 3.296875 4.15625 2.609375 4.15625 Z M 1.46875 1.609375 C 1.46875 2.003906 1.566406 2.320312 1.765625 2.5625 C 1.972656 2.800781 2.242188 2.972656 2.578125 3.078125 C 2.921875 3.191406 3.285156 3.25 3.671875 3.25 C 4.367188 3.25 4.984375 3.144531 5.515625 2.9375 C 6.054688 2.738281 6.476562 2.476562 6.78125 2.15625 C 7.082031 1.84375 7.234375 1.507812 7.234375 1.15625 C 7.234375 0.914062 7.128906 0.722656 6.921875 0.578125 C 6.710938 0.441406 6.316406 0.359375 5.734375 0.328125 L 3.3125 0.203125 C 3.132812 0.191406 2.960938 0.175781 2.796875 0.15625 C 2.628906 0.144531 2.476562 0.128906 2.34375 0.109375 C 2 0.347656 1.765625 0.59375 1.640625 0.84375 C 1.523438 1.101562 1.46875 1.359375 1.46875 1.609375 Z M 2.28125 -5.5625 C 2.28125 -5.25 2.316406 -4.914062 2.390625 -4.5625 C 2.460938 -4.207031 2.582031 -3.867188 2.75 -3.546875 C 2.914062 -3.234375 3.125 -2.972656 3.375 -2.765625 C 3.625 -2.554688 3.921875 -2.453125 4.265625 -2.453125 C 4.597656 -2.453125 4.863281 -2.535156 5.0625 -2.703125 C 5.257812 -2.867188 5.394531 -3.082031 5.46875 -3.34375 C 5.550781 -3.613281 5.59375 -3.898438 5.59375 -4.203125 C 5.59375 -4.523438 5.546875 -4.878906 5.453125 -5.265625 C 5.359375 -5.648438 5.21875 -6.007812 5.03125 -6.34375 C 4.84375 -6.675781 4.613281 -6.9375 4.34375 -7.125 C 4.082031 -7.320312 3.785156 -7.40625 3.453125 -7.375 C 3.003906 -7.332031 2.695312 -7.128906 2.53125 -6.765625 C 2.363281 -6.410156 2.28125 -6.007812 2.28125 -5.5625 Z M 2.28125 -5.5625 "/></g></g></g><g fill="#ffffff" fill-opacity="1"><g transform="translate(249.305905, 160.499989)"><g><path d="M 0.421875 0 L 0.421875 -0.203125 C 0.671875 -0.285156 0.832031 -0.453125 0.90625 -0.703125 C 0.976562 -0.960938 1.015625 -1.363281 1.015625 -1.90625 L 1.015625 -5.359375 C 1.015625 -5.796875 0.960938 -6.082031 0.859375 -6.21875 C 0.753906 -6.363281 0.609375 -6.476562 0.421875 -6.5625 L 0.421875 -6.765625 L 2.40625 -7.640625 L 2.546875 -7.515625 L 2.546875 -1.90625 C 2.546875 -1.363281 2.582031 -0.960938 2.65625 -0.703125 C 2.738281 -0.453125 2.90625 -0.285156 3.15625 -0.203125 L 3.15625 0 Z M 0.671875 -9.171875 C 0.671875 -9.453125 0.769531 -9.691406 0.96875 -9.890625 C 1.175781 -10.097656 1.414062 -10.203125 1.6875 -10.203125 C 1.988281 -10.203125 2.234375 -10.097656 2.421875 -9.890625 C 2.617188 -9.691406 2.71875 -9.453125 2.71875 -9.171875 C 2.71875 -8.890625 2.617188 -8.644531 2.421875 -8.4375 C 2.222656 -8.238281 1.976562 -8.140625 1.6875 -8.140625 C 1.414062 -8.140625 1.175781 -8.238281 0.96875 -8.4375 C 0.769531 -8.644531 0.671875 -8.890625 0.671875 -9.171875 Z M 0.671875 -9.171875 "/></g></g></g><g fill="#ffffff" fill-opacity="1"><g transform="translate(253.655907, 160.499989)"><g><path d="M 0.421875 0 L 0.421875 -0.203125 C 0.671875 -0.285156 0.832031 -0.453125 0.90625 -0.703125 C 0.976562 -0.960938 1.015625 -1.363281 1.015625 -1.90625 L 1.015625 -5.359375 C 1.015625 -5.796875 0.960938 -6.082031 0.859375 -6.21875 C 0.753906 -6.363281 0.609375 -6.476562 0.421875 -6.5625 L 0.421875 -6.765625 L 2.40625 -7.640625 L 2.546875 -7.515625 L 2.546875 -6.25 C 2.960938 -6.59375 3.429688 -6.90625 3.953125 -7.1875 C 4.484375 -7.46875 5.039062 -7.609375 5.625 -7.609375 C 6.3125 -7.609375 6.867188 -7.414062 7.296875 -7.03125 C 7.722656 -6.644531 7.9375 -6.007812 7.9375 -5.125 L 7.9375 -1.90625 C 7.9375 -1.363281 7.972656 -0.960938 8.046875 -0.703125 C 8.117188 -0.453125 8.28125 -0.285156 8.53125 -0.203125 L 8.53125 0 L 5.8125 0 L 5.8125 -0.203125 C 6.0625 -0.285156 6.222656 -0.453125 6.296875 -0.703125 C 6.367188 -0.960938 6.40625 -1.363281 6.40625 -1.90625 L 6.40625 -4.859375 C 6.40625 -5.535156 6.257812 -6.0625 5.96875 -6.4375 C 5.6875 -6.8125 5.265625 -7 4.703125 -7 C 4.359375 -7 4.015625 -6.914062 3.671875 -6.75 C 3.335938 -6.582031 2.960938 -6.332031 2.546875 -6 L 2.546875 -1.90625 C 2.546875 -1.363281 2.582031 -0.960938 2.65625 -0.703125 C 2.738281 -0.453125 2.90625 -0.285156 3.15625 -0.203125 L 3.15625 0 Z M 0.421875 0 "/></g></g></g><g fill="#ffffff" fill-opacity="1"><g transform="translate(263.240894, 160.499989)"><g><path d="M 0.421875 0 L 0.421875 -0.203125 C 0.671875 -0.285156 0.832031 -0.453125 0.90625 -0.703125 C 0.976562 -0.960938 1.015625 -1.363281 1.015625 -1.90625 L 1.015625 -5.359375 C 1.015625 -5.796875 0.960938 -6.082031 0.859375 -6.21875 C 0.753906 -6.363281 0.609375 -6.476562 0.421875 -6.5625 L 0.421875 -6.765625 L 2.40625 -7.640625 L 2.546875 -7.515625 L 2.546875 -6.25 C 2.960938 -6.59375 3.429688 -6.90625 3.953125 -7.1875 C 4.484375 -7.46875 5.039062 -7.609375 5.625 -7.609375 C 6.3125 -7.609375 6.867188 -7.414062 7.296875 -7.03125 C 7.722656 -6.644531 7.9375 -6.007812 7.9375 -5.125 L 7.9375 -1.90625 C 7.9375 -1.363281 7.972656 -0.960938 8.046875 -0.703125 C 8.117188 -0.453125 8.28125 -0.285156 8.53125 -0.203125 L 8.53125 0 L 5.8125 0 L 5.8125 -0.203125 C 6.0625 -0.285156 6.222656 -0.453125 6.296875 -0.703125 C 6.367188 -0.960938 6.40625 -1.363281 6.40625 -1.90625 L 6.40625 -4.859375 C 6.40625 -5.535156 6.257812 -6.0625 5.96875 -6.4375 C 5.6875 -6.8125 5.265625 -7 4.703125 -7 C 4.359375 -7 4.015625 -6.914062 3.671875 -6.75 C 3.335938 -6.582031 2.960938 -6.332031 2.546875 -6 L 2.546875 -1.90625 C 2.546875 -1.363281 2.582031 -0.960938 2.65625 -0.703125 C 2.738281 -0.453125 2.90625 -0.285156 3.15625 -0.203125 L 3.15625 0 Z M 0.421875 0 "/></g></g></g><g fill="#ffffff" fill-opacity="1"><g transform="translate(272.825881, 160.499989)"><g><path d="M 0.421875 0 L 0.421875 -0.203125 C 0.671875 -0.285156 0.832031 -0.453125 0.90625 -0.703125 C 0.976562 -0.960938 1.015625 -1.363281 1.015625 -1.90625 L 1.015625 -5.359375 C 1.015625 -5.796875 0.960938 -6.082031 0.859375 -6.21875 C 0.753906 -6.363281 0.609375 -6.476562 0.421875 -6.5625 L 0.421875 -6.765625 L 2.40625 -7.640625 L 2.546875 -7.515625 L 2.546875 -1.90625 C 2.546875 -1.363281 2.582031 -0.960938 2.65625 -0.703125 C 2.738281 -0.453125 2.90625 -0.285156 3.15625 -0.203125 L 3.15625 0 Z M 0.671875 -9.171875 C 0.671875 -9.453125 0.769531 -9.691406 0.96875 -9.890625 C 1.175781 -10.097656 1.414062 -10.203125 1.6875 -10.203125 C 1.988281 -10.203125 2.234375 -10.097656 2.421875 -9.890625 C 2.617188 -9.691406 2.71875 -9.453125 2.71875 -9.171875 C 2.71875 -8.890625 2.617188 -8.644531 2.421875 -8.4375 C 2.222656 -8.238281 1.976562 -8.140625 1.6875 -8.140625 C 1.414062 -8.140625 1.175781 -8.238281 0.96875 -8.4375 C 0.769531 -8.644531 0.671875 -8.890625 0.671875 -9.171875 Z M 0.671875 -9.171875 "/></g></g></g><g fill="#ffffff" fill-opacity="1"><g transform="translate(277.175883, 160.499989)"><g><path d="M 0.421875 0 L 0.421875 -0.203125 C 0.671875 -0.285156 0.832031 -0.453125 0.90625 -0.703125 C 0.976562 -0.960938 1.015625 -1.363281 1.015625 -1.90625 L 1.015625 -5.359375 C 1.015625 -5.796875 0.960938 -6.082031 0.859375 -6.21875 C 0.753906 -6.363281 0.609375 -6.476562 0.421875 -6.5625 L 0.421875 -6.765625 L 2.40625 -7.640625 L 2.546875 -7.515625 L 2.546875 -6.25 C 2.960938 -6.59375 3.429688 -6.90625 3.953125 -7.1875 C 4.484375 -7.46875 5.039062 -7.609375 5.625 -7.609375 C 6.3125 -7.609375 6.867188 -7.414062 7.296875 -7.03125 C 7.722656 -6.644531 7.9375 -6.007812 7.9375 -5.125 L 7.9375 -1.90625 C 7.9375 -1.363281 7.972656 -0.960938 8.046875 -0.703125 C 8.117188 -0.453125 8.28125 -0.285156 8.53125 -0.203125 L 8.53125 0 L 5.8125 0 L 5.8125 -0.203125 C 6.0625 -0.285156 6.222656 -0.453125 6.296875 -0.703125 C 6.367188 -0.960938 6.40625 -1.363281 6.40625 -1.90625 L 6.40625 -4.859375 C 6.40625 -5.535156 6.257812 -6.0625 5.96875 -6.4375 C 5.6875 -6.8125 5.265625 -7 4.703125 -7 C 4.359375 -7 4.015625 -6.914062 3.671875 -6.75 C 3.335938 -6.582031 2.960938 -6.332031 2.546875 -6 L 2.546875 -1.90625 C 2.546875 -1.363281 2.582031 -0.960938 2.65625 -0.703125 C 2.738281 -0.453125 2.90625 -0.285156 3.15625 -0.203125 L 3.15625 0 Z M 0.421875 0 "/></g></g></g><g fill="#ffffff" fill-opacity="1"><g transform="translate(286.76087, 160.499989)"><g><path d="M 2.609375 4.15625 C 2.378906 4.15625 2.128906 4.125 1.859375 4.0625 C 1.585938 4 1.328125 3.898438 1.078125 3.765625 C 0.835938 3.628906 0.632812 3.441406 0.46875 3.203125 C 0.3125 2.972656 0.234375 2.6875 0.234375 2.34375 C 0.234375 1.925781 0.394531 1.523438 0.71875 1.140625 C 1.050781 0.753906 1.503906 0.390625 2.078125 0.046875 C 1.773438 -0.046875 1.53125 -0.179688 1.34375 -0.359375 C 1.164062 -0.546875 1.078125 -0.796875 1.078125 -1.109375 C 1.078125 -1.390625 1.175781 -1.640625 1.375 -1.859375 C 1.582031 -2.078125 1.882812 -2.304688 2.28125 -2.546875 C 1.882812 -2.734375 1.550781 -3.003906 1.28125 -3.359375 C 1.019531 -3.710938 0.890625 -4.171875 0.890625 -4.734375 C 0.890625 -5.265625 1.03125 -5.742188 1.3125 -6.171875 C 1.59375 -6.609375 1.96875 -6.957031 2.4375 -7.21875 C 2.90625 -7.476562 3.40625 -7.609375 3.9375 -7.609375 C 4.332031 -7.609375 4.703125 -7.5625 5.046875 -7.46875 C 5.265625 -7.8125 5.523438 -8.082031 5.828125 -8.28125 C 6.066406 -8.445312 6.316406 -8.578125 6.578125 -8.671875 C 6.847656 -8.765625 7.140625 -8.8125 7.453125 -8.8125 C 7.679688 -8.8125 7.882812 -8.78125 8.0625 -8.71875 C 8.238281 -8.65625 8.328125 -8.554688 8.328125 -8.421875 C 8.328125 -8.328125 8.289062 -8.207031 8.21875 -8.0625 C 8.144531 -7.914062 8.035156 -7.785156 7.890625 -7.671875 C 7.753906 -7.554688 7.582031 -7.5 7.375 -7.5 C 7.195312 -7.5 6.984375 -7.53125 6.734375 -7.59375 C 6.484375 -7.664062 6.144531 -7.773438 5.71875 -7.921875 C 5.570312 -7.804688 5.421875 -7.628906 5.265625 -7.390625 C 5.742188 -7.234375 6.144531 -6.96875 6.46875 -6.59375 C 6.800781 -6.21875 6.96875 -5.707031 6.96875 -5.0625 C 6.96875 -4.632812 6.867188 -4.242188 6.671875 -3.890625 C 6.484375 -3.546875 6.234375 -3.25 5.921875 -3 C 5.609375 -2.75 5.273438 -2.550781 4.921875 -2.40625 C 4.578125 -2.269531 4.25 -2.203125 3.9375 -2.203125 C 3.707031 -2.203125 3.460938 -2.222656 3.203125 -2.265625 C 2.953125 -2.304688 2.710938 -2.367188 2.484375 -2.453125 C 2.359375 -2.378906 2.253906 -2.296875 2.171875 -2.203125 C 2.097656 -2.117188 2.0625 -2.015625 2.0625 -1.890625 C 2.0625 -1.796875 2.097656 -1.703125 2.171875 -1.609375 C 2.242188 -1.515625 2.390625 -1.4375 2.609375 -1.375 C 2.835938 -1.3125 3.179688 -1.265625 3.640625 -1.234375 L 5.65625 -1.109375 C 6.425781 -1.066406 7 -0.945312 7.375 -0.75 C 7.757812 -0.5625 7.953125 -0.203125 7.953125 0.328125 C 7.953125 0.734375 7.800781 1.160156 7.5 1.609375 C 7.207031 2.054688 6.8125 2.472656 6.3125 2.859375 C 5.8125 3.242188 5.238281 3.554688 4.59375 3.796875 C 3.957031 4.035156 3.296875 4.15625 2.609375 4.15625 Z M 1.46875 1.609375 C 1.46875 2.003906 1.566406 2.320312 1.765625 2.5625 C 1.972656 2.800781 2.242188 2.972656 2.578125 3.078125 C 2.921875 3.191406 3.285156 3.25 3.671875 3.25 C 4.367188 3.25 4.984375 3.144531 5.515625 2.9375 C 6.054688 2.738281 6.476562 2.476562 6.78125 2.15625 C 7.082031 1.84375 7.234375 1.507812 7.234375 1.15625 C 7.234375 0.914062 7.128906 0.722656 6.921875 0.578125 C 6.710938 0.441406 6.316406 0.359375 5.734375 0.328125 L 3.3125 0.203125 C 3.132812 0.191406 2.960938 0.175781 2.796875 0.15625 C 2.628906 0.144531 2.476562 0.128906 2.34375 0.109375 C 2 0.347656 1.765625 0.59375 1.640625 0.84375 C 1.523438 1.101562 1.46875 1.359375 1.46875 1.609375 Z M 2.28125 -5.5625 C 2.28125 -5.25 2.316406 -4.914062 2.390625 -4.5625 C 2.460938 -4.207031 2.582031 -3.867188 2.75 -3.546875 C 2.914062 -3.234375 3.125 -2.972656 3.375 -2.765625 C 3.625 -2.554688 3.921875 -2.453125 4.265625 -2.453125 C 4.597656 -2.453125 4.863281 -2.535156 5.0625 -2.703125 C 5.257812 -2.867188 5.394531 -3.082031 5.46875 -3.34375 C 5.550781 -3.613281 5.59375 -3.898438 5.59375 -4.203125 C 5.59375 -4.523438 5.546875 -4.878906 5.453125 -5.265625 C 5.359375 -5.648438 5.21875 -6.007812 5.03125 -6.34375 C 4.84375 -6.675781 4.613281 -6.9375 4.34375 -7.125 C 4.082031 -7.320312 3.785156 -7.40625 3.453125 -7.375 C 3.003906 -7.332031 2.695312 -7.128906 2.53125 -6.765625 C 2.363281 -6.410156 2.28125 -6.007812 2.28125 -5.5625 Z M 2.28125 -5.5625 "/></g></g></g><g fill="#ffffff" fill-opacity="1"><g transform="translate(295.520864, 160.499989)"><g><path d="M 3.3125 0.125 C 2.757812 0.125 2.242188 0.0546875 1.765625 -0.078125 C 1.285156 -0.222656 0.898438 -0.390625 0.609375 -0.578125 L 0.46875 -2.546875 L 0.609375 -2.578125 C 0.929688 -1.859375 1.351562 -1.269531 1.875 -0.8125 C 2.40625 -0.363281 3.003906 -0.132812 3.671875 -0.125 C 4.140625 -0.113281 4.507812 -0.238281 4.78125 -0.5 C 5.0625 -0.769531 5.203125 -1.070312 5.203125 -1.40625 C 5.203125 -1.882812 5.019531 -2.242188 4.65625 -2.484375 C 4.289062 -2.722656 3.785156 -2.945312 3.140625 -3.15625 C 2.617188 -3.3125 2.164062 -3.476562 1.78125 -3.65625 C 1.394531 -3.832031 1.097656 -4.054688 0.890625 -4.328125 C 0.679688 -4.597656 0.578125 -4.960938 0.578125 -5.421875 C 0.578125 -5.796875 0.679688 -6.148438 0.890625 -6.484375 C 1.097656 -6.816406 1.414062 -7.085938 1.84375 -7.296875 C 2.269531 -7.503906 2.828125 -7.609375 3.515625 -7.609375 C 3.941406 -7.609375 4.363281 -7.570312 4.78125 -7.5 C 5.207031 -7.425781 5.546875 -7.335938 5.796875 -7.234375 L 5.859375 -5.578125 L 5.6875 -5.546875 C 5.4375 -6.078125 5.085938 -6.515625 4.640625 -6.859375 C 4.191406 -7.210938 3.695312 -7.390625 3.15625 -7.390625 C 2.675781 -7.390625 2.296875 -7.28125 2.015625 -7.0625 C 1.734375 -6.84375 1.59375 -6.570312 1.59375 -6.25 C 1.59375 -5.832031 1.773438 -5.507812 2.140625 -5.28125 C 2.503906 -5.0625 3.019531 -4.835938 3.6875 -4.609375 C 4.09375 -4.472656 4.484375 -4.328125 4.859375 -4.171875 C 5.242188 -4.015625 5.5625 -3.789062 5.8125 -3.5 C 6.070312 -3.21875 6.203125 -2.820312 6.203125 -2.3125 C 6.203125 -1.925781 6.113281 -1.546875 5.9375 -1.171875 C 5.757812 -0.796875 5.457031 -0.484375 5.03125 -0.234375 C 4.613281 0.00390625 4.039062 0.125 3.3125 0.125 Z M 3.3125 0.125 "/></g></g></g><g fill="#ffffff" fill-opacity="1"><g transform="translate(186.995954, 182.249988)"><g><path d="M 6.1875 0.15625 C 5.539062 0.15625 4.898438 0.046875 4.265625 -0.171875 C 3.640625 -0.390625 3.0625 -0.71875 2.53125 -1.15625 C 2.007812 -1.601562 1.59375 -2.171875 1.28125 -2.859375 C 0.96875 -3.546875 0.8125 -4.359375 0.8125 -5.296875 C 0.8125 -6.035156 0.941406 -6.726562 1.203125 -7.375 C 1.460938 -8.019531 1.828125 -8.582031 2.296875 -9.0625 C 2.773438 -9.550781 3.34375 -9.929688 4 -10.203125 C 4.664062 -10.484375 5.394531 -10.625 6.1875 -10.625 C 6.8125 -10.625 7.441406 -10.507812 8.078125 -10.28125 C 8.710938 -10.0625 9.289062 -9.726562 9.8125 -9.28125 C 10.332031 -8.84375 10.75 -8.28125 11.0625 -7.59375 C 11.375 -6.914062 11.53125 -6.117188 11.53125 -5.203125 C 11.53125 -4.296875 11.375 -3.503906 11.0625 -2.828125 C 10.75 -2.148438 10.328125 -1.59375 9.796875 -1.15625 C 9.273438 -0.71875 8.695312 -0.390625 8.0625 -0.171875 C 7.4375 0.046875 6.8125 0.15625 6.1875 0.15625 Z M 2.375 -6.203125 C 2.414062 -5.453125 2.5625 -4.722656 2.8125 -4.015625 C 3.070312 -3.316406 3.40625 -2.691406 3.8125 -2.140625 C 4.226562 -1.585938 4.707031 -1.144531 5.25 -0.8125 C 5.800781 -0.476562 6.394531 -0.3125 7.03125 -0.3125 C 7.800781 -0.3125 8.410156 -0.484375 8.859375 -0.828125 C 9.316406 -1.171875 9.632812 -1.625 9.8125 -2.1875 C 10 -2.75 10.066406 -3.359375 10.015625 -4.015625 C 9.960938 -4.816406 9.8125 -5.585938 9.5625 -6.328125 C 9.320312 -7.066406 9 -7.726562 8.59375 -8.3125 C 8.195312 -8.90625 7.726562 -9.375 7.1875 -9.71875 C 6.644531 -10.0625 6.050781 -10.234375 5.40625 -10.234375 C 4.71875 -10.234375 4.140625 -10.066406 3.671875 -9.734375 C 3.203125 -9.398438 2.851562 -8.929688 2.625 -8.328125 C 2.40625 -7.722656 2.320312 -7.015625 2.375 -6.203125 Z M 2.375 -6.203125 "/></g></g></g><g fill="#ffffff" fill-opacity="1"><g transform="translate(200.045937, 182.249988)"><g><path d="M 3.15625 0.15625 C 2.363281 0.15625 1.789062 -0.0820312 1.4375 -0.5625 C 1.082031 -1.050781 0.90625 -1.75 0.90625 -2.65625 L 0.90625 -5.359375 C 0.90625 -5.796875 0.847656 -6.082031 0.734375 -6.21875 C 0.628906 -6.363281 0.484375 -6.476562 0.296875 -6.5625 L 0.296875 -6.765625 L 2.28125 -7.640625 L 2.4375 -7.515625 L 2.4375 -2.84375 C 2.4375 -2.050781 2.523438 -1.453125 2.703125 -1.046875 C 2.878906 -0.648438 3.257812 -0.453125 3.84375 -0.453125 C 4.175781 -0.453125 4.523438 -0.546875 4.890625 -0.734375 C 5.253906 -0.929688 5.617188 -1.21875 5.984375 -1.59375 L 5.984375 -5.359375 C 5.984375 -5.796875 5.929688 -6.082031 5.828125 -6.21875 C 5.722656 -6.363281 5.578125 -6.476562 5.390625 -6.5625 L 5.390625 -6.765625 L 7.359375 -7.640625 L 7.515625 -7.515625 L 7.515625 -1.90625 C 7.515625 -1.363281 7.550781 -0.960938 7.625 -0.703125 C 7.695312 -0.453125 7.859375 -0.285156 8.109375 -0.203125 L 8.109375 0 L 6.578125 0 C 6.179688 0 5.984375 -0.195312 5.984375 -0.59375 L 5.984375 -1.28125 C 5.554688 -0.863281 5.09375 -0.519531 4.59375 -0.25 C 4.101562 0.0195312 3.625 0.15625 3.15625 0.15625 Z M 3.15625 0.15625 "/></g></g></g><g fill="#ffffff" fill-opacity="1"><g transform="translate(209.360924, 182.249988)"><g><path d="M 2.8125 0.15625 C 2.3125 0.15625 1.925781 -0.0195312 1.65625 -0.375 C 1.394531 -0.726562 1.265625 -1.304688 1.265625 -2.109375 L 1.265625 -7.265625 L 0.296875 -7.265625 L 0.296875 -7.5 L 2.546875 -9.484375 L 2.796875 -9.484375 L 2.796875 -7.5 L 5.109375 -7.5 L 5.0625 -7.265625 L 2.796875 -7.265625 L 2.796875 -2.09375 C 2.796875 -1.632812 2.878906 -1.296875 3.046875 -1.078125 C 3.210938 -0.867188 3.460938 -0.765625 3.796875 -0.765625 C 3.960938 -0.765625 4.160156 -0.8125 4.390625 -0.90625 C 4.628906 -1 4.875 -1.203125 5.125 -1.515625 L 5.28125 -1.359375 C 4.882812 -0.898438 4.488281 -0.53125 4.09375 -0.25 C 3.695312 0.0195312 3.269531 0.15625 2.8125 0.15625 Z M 2.8125 0.15625 "/></g></g></g><g fill="#ffffff" fill-opacity="1"><g transform="translate(215.45092, 182.249988)"><g><path d="M 0.421875 0 L 0.421875 -0.203125 C 0.671875 -0.285156 0.832031 -0.453125 0.90625 -0.703125 C 0.976562 -0.960938 1.015625 -1.363281 1.015625 -1.90625 L 1.015625 -5.359375 C 1.015625 -5.796875 0.960938 -6.082031 0.859375 -6.21875 C 0.753906 -6.363281 0.609375 -6.476562 0.421875 -6.5625 L 0.421875 -6.765625 L 2.40625 -7.640625 L 2.546875 -7.515625 L 2.546875 -5.703125 C 2.773438 -6.242188 3.140625 -6.679688 3.640625 -7.015625 C 3.921875 -7.210938 4.207031 -7.359375 4.5 -7.453125 C 4.800781 -7.554688 5.128906 -7.609375 5.484375 -7.609375 C 5.742188 -7.609375 5.96875 -7.570312 6.15625 -7.5 C 6.351562 -7.425781 6.453125 -7.3125 6.453125 -7.15625 C 6.453125 -7.039062 6.410156 -6.90625 6.328125 -6.75 C 6.253906 -6.601562 6.144531 -6.472656 6 -6.359375 C 5.851562 -6.242188 5.664062 -6.1875 5.4375 -6.1875 C 5.21875 -6.1875 4.957031 -6.222656 4.65625 -6.296875 C 4.351562 -6.367188 3.960938 -6.476562 3.484375 -6.625 C 3.285156 -6.46875 3.082031 -6.234375 2.875 -5.921875 C 2.675781 -5.609375 2.566406 -5.265625 2.546875 -4.890625 L 2.546875 -1.90625 C 2.546875 -1.363281 2.582031 -0.960938 2.65625 -0.703125 C 2.738281 -0.453125 2.90625 -0.285156 3.15625 -0.203125 L 3.15625 0 Z M 0.421875 0 "/></g></g></g><g fill="#ffffff" fill-opacity="1"><g transform="translate(222.965911, 182.249988)"><g><path d="M 4.015625 0.15625 C 3.597656 0.15625 3.179688 0.0820312 2.765625 -0.0625 C 2.347656 -0.21875 1.960938 -0.445312 1.609375 -0.75 C 1.265625 -1.050781 0.988281 -1.425781 0.78125 -1.875 C 0.570312 -2.320312 0.46875 -2.851562 0.46875 -3.46875 C 0.46875 -4.101562 0.578125 -4.675781 0.796875 -5.1875 C 1.023438 -5.695312 1.328125 -6.128906 1.703125 -6.484375 C 2.085938 -6.847656 2.507812 -7.125 2.96875 -7.3125 C 3.4375 -7.507812 3.914062 -7.609375 4.40625 -7.609375 C 5.09375 -7.609375 5.664062 -7.472656 6.125 -7.203125 C 6.582031 -6.929688 6.925781 -6.585938 7.15625 -6.171875 C 7.394531 -5.765625 7.515625 -5.34375 7.515625 -4.90625 L 1.828125 -4.90625 C 1.816406 -4.820312 1.804688 -4.738281 1.796875 -4.65625 C 1.796875 -4.582031 1.796875 -4.503906 1.796875 -4.421875 C 1.796875 -3.773438 1.921875 -3.195312 2.171875 -2.6875 C 2.429688 -2.175781 2.789062 -1.773438 3.25 -1.484375 C 3.71875 -1.203125 4.269531 -1.0625 4.90625 -1.0625 C 5.46875 -1.0625 5.960938 -1.171875 6.390625 -1.390625 C 6.816406 -1.609375 7.1875 -1.894531 7.5 -2.25 L 7.640625 -2.09375 C 7.410156 -1.75 7.125 -1.40625 6.78125 -1.0625 C 6.4375 -0.71875 6.035156 -0.425781 5.578125 -0.1875 C 5.117188 0.0390625 4.597656 0.15625 4.015625 0.15625 Z M 1.84375 -5.109375 L 6 -5.109375 C 5.9375 -5.523438 5.804688 -5.898438 5.609375 -6.234375 C 5.421875 -6.566406 5.179688 -6.832031 4.890625 -7.03125 C 4.609375 -7.226562 4.289062 -7.328125 3.9375 -7.328125 C 3.519531 -7.335938 3.164062 -7.238281 2.875 -7.03125 C 2.582031 -6.820312 2.351562 -6.546875 2.1875 -6.203125 C 2.019531 -5.867188 1.90625 -5.503906 1.84375 -5.109375 Z M 1.84375 -5.109375 "/></g></g></g><g fill="#ffffff" fill-opacity="1"><g transform="translate(231.725905, 182.249988)"><g><path d="M 6.15625 0 C 5.75 0 5.546875 -0.195312 5.546875 -0.59375 L 5.546875 -3.078125 C 5.410156 -2.492188 5.203125 -1.957031 4.921875 -1.46875 C 4.640625 -0.976562 4.289062 -0.582031 3.875 -0.28125 C 3.46875 0.0078125 3.003906 0.15625 2.484375 0.15625 C 1.941406 0.15625 1.46875 -0.015625 1.0625 -0.359375 C 0.65625 -0.703125 0.453125 -1.1875 0.453125 -1.8125 C 0.453125 -2.332031 0.609375 -2.753906 0.921875 -3.078125 C 1.234375 -3.398438 1.648438 -3.671875 2.171875 -3.890625 C 2.691406 -4.117188 3.265625 -4.316406 3.890625 -4.484375 L 5.546875 -4.96875 C 5.535156 -5.707031 5.347656 -6.234375 4.984375 -6.546875 C 4.617188 -6.859375 4.15625 -7.015625 3.59375 -7.015625 C 3.175781 -7.015625 2.757812 -6.914062 2.34375 -6.71875 C 1.9375 -6.53125 1.546875 -6.207031 1.171875 -5.75 L 1.015625 -5.875 C 1.441406 -6.394531 1.9375 -6.8125 2.5 -7.125 C 3.070312 -7.445312 3.695312 -7.609375 4.375 -7.609375 C 5.289062 -7.609375 5.960938 -7.367188 6.390625 -6.890625 C 6.828125 -6.421875 7.046875 -5.722656 7.046875 -4.796875 L 7.046875 -1.90625 C 7.046875 -1.363281 7.082031 -0.960938 7.15625 -0.703125 C 7.238281 -0.453125 7.40625 -0.285156 7.65625 -0.203125 L 7.65625 0 Z M 1.84375 -2.34375 C 1.84375 -1.851562 1.988281 -1.492188 2.28125 -1.265625 C 2.582031 -1.046875 2.898438 -0.9375 3.234375 -0.9375 C 3.609375 -0.9375 3.9375 -1.050781 4.21875 -1.28125 C 4.507812 -1.507812 4.75 -1.800781 4.9375 -2.15625 C 5.132812 -2.507812 5.285156 -2.878906 5.390625 -3.265625 C 5.492188 -3.660156 5.546875 -4.023438 5.546875 -4.359375 L 5.546875 -4.75 L 3.9375 -4.296875 C 3.757812 -4.242188 3.550781 -4.171875 3.3125 -4.078125 C 3.082031 -3.984375 2.851562 -3.859375 2.625 -3.703125 C 2.40625 -3.554688 2.21875 -3.367188 2.0625 -3.140625 C 1.914062 -2.921875 1.84375 -2.65625 1.84375 -2.34375 Z M 1.84375 -2.34375 "/></g></g></g><g fill="#ffffff" fill-opacity="1"><g transform="translate(240.425897, 182.249988)"><g><path d="M 4.015625 0.15625 C 3.410156 0.15625 2.832031 0.015625 2.28125 -0.265625 C 1.738281 -0.546875 1.300781 -0.957031 0.96875 -1.5 C 0.632812 -2.039062 0.46875 -2.695312 0.46875 -3.46875 C 0.46875 -4.09375 0.578125 -4.660156 0.796875 -5.171875 C 1.015625 -5.679688 1.316406 -6.113281 1.703125 -6.46875 C 2.085938 -6.832031 2.519531 -7.113281 3 -7.3125 C 3.488281 -7.507812 3.992188 -7.609375 4.515625 -7.609375 C 5.316406 -7.609375 5.96875 -7.515625 6.46875 -7.328125 C 6.96875 -7.148438 7.21875 -6.957031 7.21875 -6.75 C 7.21875 -6.601562 7.160156 -6.453125 7.046875 -6.296875 C 6.941406 -6.148438 6.8125 -6.023438 6.65625 -5.921875 C 6.5 -5.828125 6.34375 -5.78125 6.1875 -5.78125 C 5.976562 -5.78125 5.695312 -5.90625 5.34375 -6.15625 C 4.988281 -6.40625 4.519531 -6.800781 3.9375 -7.34375 C 3.507812 -7.289062 3.132812 -7.117188 2.8125 -6.828125 C 2.488281 -6.546875 2.238281 -6.191406 2.0625 -5.765625 C 1.882812 -5.347656 1.796875 -4.898438 1.796875 -4.421875 C 1.796875 -3.773438 1.921875 -3.195312 2.171875 -2.6875 C 2.429688 -2.175781 2.789062 -1.773438 3.25 -1.484375 C 3.71875 -1.203125 4.269531 -1.0625 4.90625 -1.0625 C 5.46875 -1.0625 5.960938 -1.171875 6.390625 -1.390625 C 6.816406 -1.609375 7.1875 -1.894531 7.5 -2.25 L 7.640625 -2.09375 C 7.410156 -1.75 7.125 -1.40625 6.78125 -1.0625 C 6.4375 -0.71875 6.035156 -0.425781 5.578125 -0.1875 C 5.117188 0.0390625 4.597656 0.15625 4.015625 0.15625 Z M 4.015625 0.15625 "/></g></g></g><g fill="#ffffff" fill-opacity="1"><g transform="translate(249.095895, 182.249988)"><g><path d="M 0.296875 0 L 0.296875 -0.203125 C 0.546875 -0.285156 0.707031 -0.453125 0.78125 -0.703125 C 0.863281 -0.960938 0.90625 -1.363281 0.90625 -1.90625 L 0.90625 -9.859375 C 0.90625 -10.296875 0.847656 -10.582031 0.734375 -10.71875 C 0.628906 -10.863281 0.484375 -10.976562 0.296875 -11.0625 L 0.296875 -11.265625 L 2.28125 -12.140625 L 2.4375 -12.015625 L 2.4375 -6.25 C 2.84375 -6.59375 3.3125 -6.90625 3.84375 -7.1875 C 4.375 -7.46875 4.925781 -7.609375 5.5 -7.609375 C 6.195312 -7.609375 6.753906 -7.414062 7.171875 -7.03125 C 7.597656 -6.644531 7.8125 -6.007812 7.8125 -5.125 L 7.8125 -1.90625 C 7.8125 -1.363281 7.847656 -0.960938 7.921875 -0.703125 C 8.003906 -0.453125 8.171875 -0.285156 8.421875 -0.203125 L 8.421875 0 L 5.6875 0 L 5.6875 -0.203125 C 5.9375 -0.285156 6.097656 -0.453125 6.171875 -0.703125 C 6.242188 -0.960938 6.28125 -1.363281 6.28125 -1.90625 L 6.28125 -4.859375 C 6.28125 -5.535156 6.140625 -6.0625 5.859375 -6.4375 C 5.578125 -6.8125 5.15625 -7 4.59375 -7 C 4.238281 -7 3.890625 -6.914062 3.546875 -6.75 C 3.210938 -6.582031 2.84375 -6.332031 2.4375 -6 L 2.4375 -1.90625 C 2.4375 -1.363281 2.472656 -0.960938 2.546875 -0.703125 C 2.617188 -0.453125 2.78125 -0.285156 3.03125 -0.203125 L 3.03125 0 Z M 0.296875 0 "/></g></g></g><g fill="#ffffff" fill-opacity="1"><g transform="translate(258.560891, 182.249988)"><g/></g></g><g fill="#ffffff" fill-opacity="1"><g transform="translate(262.310891, 182.249988)"><g><path d="M 5.46875 -8.734375 C 5.269531 -9.234375 5.070312 -9.597656 4.875 -9.828125 C 4.6875 -10.054688 4.503906 -10.210938 4.328125 -10.296875 L 4.328125 -10.5 L 7.046875 -10.5 L 7.046875 -10.296875 C 6.796875 -10.210938 6.703125 -10.054688 6.765625 -9.828125 C 6.835938 -9.597656 6.972656 -9.234375 7.171875 -8.734375 L 7.90625 -6.9375 L 8.5625 -8.71875 C 8.75 -9.21875 8.816406 -9.585938 8.765625 -9.828125 C 8.722656 -10.078125 8.570312 -10.234375 8.3125 -10.296875 L 8.3125 -10.5 L 10.046875 -10.5 L 10.046875 -10.296875 C 9.828125 -10.210938 9.617188 -10.050781 9.421875 -9.8125 C 9.234375 -9.582031 9.035156 -9.21875 8.828125 -8.71875 L 8.046875 -6.578125 L 9.953125 -1.921875 L 12.4375 -8.71875 C 12.625 -9.21875 12.691406 -9.585938 12.640625 -9.828125 C 12.585938 -10.078125 12.4375 -10.234375 12.1875 -10.296875 L 12.1875 -10.5 L 13.921875 -10.5 L 13.921875 -10.296875 C 13.703125 -10.210938 13.492188 -10.050781 13.296875 -9.8125 C 13.097656 -9.582031 12.910156 -9.21875 12.734375 -8.71875 L 9.5625 0 L 9.03125 0 L 7.046875 -4.84375 L 5.078125 0 L 4.515625 0 L 1.1875 -8.71875 C 1 -9.226562 0.8125 -9.597656 0.625 -9.828125 C 0.4375 -10.054688 0.257812 -10.210938 0.09375 -10.296875 L 0.09375 -10.5 L 2.8125 -10.5 L 2.8125 -10.296875 C 2.5625 -10.210938 2.460938 -10.054688 2.515625 -9.828125 C 2.578125 -9.597656 2.703125 -9.226562 2.890625 -8.71875 L 5.515625 -1.890625 L 6.90625 -5.234375 Z M 5.46875 -8.734375 "/></g></g></g><g fill="#ffffff" fill-opacity="1"><g transform="translate(277.055881, 182.249988)"><g><path d="M 4.46875 0.15625 C 3.976562 0.15625 3.492188 0.0820312 3.015625 -0.0625 C 2.546875 -0.207031 2.117188 -0.429688 1.734375 -0.734375 C 1.347656 -1.046875 1.039062 -1.429688 0.8125 -1.890625 C 0.582031 -2.359375 0.46875 -2.914062 0.46875 -3.5625 C 0.46875 -4.164062 0.578125 -4.710938 0.796875 -5.203125 C 1.015625 -5.703125 1.3125 -6.128906 1.6875 -6.484375 C 2.070312 -6.835938 2.503906 -7.113281 2.984375 -7.3125 C 3.460938 -7.507812 3.957031 -7.609375 4.46875 -7.609375 C 4.9375 -7.609375 5.398438 -7.535156 5.859375 -7.390625 C 6.328125 -7.253906 6.757812 -7.03125 7.15625 -6.71875 C 7.550781 -6.414062 7.863281 -6.03125 8.09375 -5.5625 C 8.332031 -5.09375 8.453125 -4.53125 8.453125 -3.875 C 8.453125 -3.226562 8.328125 -2.65625 8.078125 -2.15625 C 7.835938 -1.65625 7.519531 -1.234375 7.125 -0.890625 C 6.738281 -0.554688 6.304688 -0.296875 5.828125 -0.109375 C 5.359375 0.0664062 4.90625 0.15625 4.46875 0.15625 Z M 1.96875 -4.6875 C 1.96875 -4.238281 2.03125 -3.753906 2.15625 -3.234375 C 2.289062 -2.710938 2.484375 -2.21875 2.734375 -1.75 C 2.992188 -1.289062 3.3125 -0.914062 3.6875 -0.625 C 4.070312 -0.332031 4.507812 -0.1875 5 -0.1875 C 5.488281 -0.1875 5.875 -0.3125 6.15625 -0.5625 C 6.4375 -0.8125 6.632812 -1.128906 6.75 -1.515625 C 6.875 -1.898438 6.9375 -2.304688 6.9375 -2.734375 C 6.9375 -3.210938 6.859375 -3.722656 6.703125 -4.265625 C 6.554688 -4.804688 6.335938 -5.316406 6.046875 -5.796875 C 5.765625 -6.285156 5.421875 -6.671875 5.015625 -6.953125 C 4.617188 -7.234375 4.179688 -7.351562 3.703125 -7.3125 C 3.273438 -7.269531 2.929688 -7.117188 2.671875 -6.859375 C 2.421875 -6.609375 2.238281 -6.289062 2.125 -5.90625 C 2.019531 -5.519531 1.96875 -5.113281 1.96875 -4.6875 Z M 1.96875 -4.6875 "/></g></g></g><g fill="#ffffff" fill-opacity="1"><g transform="translate(286.880873, 182.249988)"><g><path d="M 0.421875 0 L 0.421875 -0.203125 C 0.671875 -0.285156 0.832031 -0.453125 0.90625 -0.703125 C 0.976562 -0.960938 1.015625 -1.363281 1.015625 -1.90625 L 1.015625 -5.359375 C 1.015625 -5.796875 0.960938 -6.082031 0.859375 -6.21875 C 0.753906 -6.363281 0.609375 -6.476562 0.421875 -6.5625 L 0.421875 -6.765625 L 2.40625 -7.640625 L 2.546875 -7.515625 L 2.546875 -5.703125 C 2.773438 -6.242188 3.140625 -6.679688 3.640625 -7.015625 C 3.921875 -7.210938 4.207031 -7.359375 4.5 -7.453125 C 4.800781 -7.554688 5.128906 -7.609375 5.484375 -7.609375 C 5.742188 -7.609375 5.96875 -7.570312 6.15625 -7.5 C 6.351562 -7.425781 6.453125 -7.3125 6.453125 -7.15625 C 6.453125 -7.039062 6.410156 -6.90625 6.328125 -6.75 C 6.253906 -6.601562 6.144531 -6.472656 6 -6.359375 C 5.851562 -6.242188 5.664062 -6.1875 5.4375 -6.1875 C 5.21875 -6.1875 4.957031 -6.222656 4.65625 -6.296875 C 4.351562 -6.367188 3.960938 -6.476562 3.484375 -6.625 C 3.285156 -6.46875 3.082031 -6.234375 2.875 -5.921875 C 2.675781 -5.609375 2.566406 -5.265625 2.546875 -4.890625 L 2.546875 -1.90625 C 2.546875 -1.363281 2.582031 -0.960938 2.65625 -0.703125 C 2.738281 -0.453125 2.90625 -0.285156 3.15625 -0.203125 L 3.15625 0 Z M 0.421875 0 "/></g></g></g><g fill="#ffffff" fill-opacity="1"><g transform="translate(294.395864, 182.249988)"><g><path d="M 0.453125 0 L 0.453125 -0.203125 C 0.703125 -0.285156 0.863281 -0.453125 0.9375 -0.703125 C 1.007812 -0.960938 1.046875 -1.363281 1.046875 -1.90625 L 1.046875 -9.859375 C 1.046875 -10.296875 0.992188 -10.582031 0.890625 -10.71875 C 0.785156 -10.863281 0.640625 -10.976562 0.453125 -11.0625 L 0.453125 -11.265625 L 2.4375 -12.140625 L 2.578125 -12.015625 L 2.578125 -1.90625 C 2.578125 -1.363281 2.613281 -0.960938 2.6875 -0.703125 C 2.769531 -0.453125 2.9375 -0.285156 3.1875 -0.203125 L 3.1875 0 Z M 0.453125 0 "/></g></g></g><g fill="#ffffff" fill-opacity="1"><g transform="translate(298.835863, 182.249988)"><g><path d="M 3.65625 0.1875 C 3.03125 0.175781 2.476562 -0.00390625 2 -0.359375 C 1.519531 -0.710938 1.144531 -1.160156 0.875 -1.703125 C 0.601562 -2.253906 0.46875 -2.84375 0.46875 -3.46875 C 0.46875 -4.238281 0.632812 -4.929688 0.96875 -5.546875 C 1.300781 -6.171875 1.78125 -6.664062 2.40625 -7.03125 C 3.03125 -7.40625 3.78125 -7.59375 4.65625 -7.59375 C 4.96875 -7.59375 5.253906 -7.554688 5.515625 -7.484375 C 5.785156 -7.410156 6.03125 -7.320312 6.25 -7.21875 L 6.25 -9.859375 C 6.25 -10.296875 6.195312 -10.582031 6.09375 -10.71875 C 5.988281 -10.863281 5.84375 -10.976562 5.65625 -11.0625 L 5.65625 -11.265625 L 7.640625 -12.140625 L 7.78125 -12.015625 L 7.78125 -1.90625 C 7.78125 -1.363281 7.816406 -0.960938 7.890625 -0.703125 C 7.972656 -0.453125 8.140625 -0.285156 8.390625 -0.203125 L 8.390625 0 L 6.859375 0 C 6.453125 0 6.25 -0.195312 6.25 -0.59375 L 6.25 -1.234375 C 6.0625 -1.015625 5.835938 -0.789062 5.578125 -0.5625 C 5.316406 -0.34375 5.023438 -0.160156 4.703125 -0.015625 C 4.390625 0.117188 4.039062 0.1875 3.65625 0.1875 Z M 1.9375 -4.6875 C 1.9375 -4.320312 1.972656 -3.914062 2.046875 -3.46875 C 2.117188 -3.019531 2.253906 -2.585938 2.453125 -2.171875 C 2.648438 -1.753906 2.921875 -1.40625 3.265625 -1.125 C 3.609375 -0.851562 4.050781 -0.71875 4.59375 -0.71875 C 4.914062 -0.71875 5.21875 -0.796875 5.5 -0.953125 C 5.78125 -1.117188 6.03125 -1.316406 6.25 -1.546875 L 6.25 -4.859375 C 6.25 -5.234375 6.148438 -5.601562 5.953125 -5.96875 C 5.753906 -6.34375 5.488281 -6.65625 5.15625 -6.90625 C 4.820312 -7.15625 4.441406 -7.28125 4.015625 -7.28125 C 3.460938 -7.28125 3.035156 -7.144531 2.734375 -6.875 C 2.441406 -6.601562 2.234375 -6.269531 2.109375 -5.875 C 1.992188 -5.476562 1.9375 -5.082031 1.9375 -4.6875 Z M 1.9375 -4.6875 "/></g></g></g><g fill="#ffffff" fill-opacity="1"><g transform="translate(308.240857, 182.249988)"><g><path d="M 0.671875 -5.671875 C 0.523438 -6.191406 0.390625 -6.570312 0.265625 -6.8125 C 0.140625 -7.0625 -0.0078125 -7.222656 -0.1875 -7.296875 L -0.1875 -7.5 L 2.390625 -7.5 L 2.390625 -7.296875 C 2.140625 -7.210938 2.023438 -7.050781 2.046875 -6.8125 C 2.066406 -6.570312 2.148438 -6.191406 2.296875 -5.671875 L 3.4375 -1.65625 L 5.4375 -7.5 L 6.359375 -7.5 L 8.34375 -1.703125 L 9.53125 -5.671875 C 9.675781 -6.191406 9.710938 -6.578125 9.640625 -6.828125 C 9.578125 -7.078125 9.414062 -7.234375 9.15625 -7.296875 L 9.15625 -7.5 L 10.75 -7.5 L 10.75 -7.296875 C 10.53125 -7.222656 10.347656 -7.0625 10.203125 -6.8125 C 10.066406 -6.570312 9.925781 -6.191406 9.78125 -5.671875 L 8.0625 0 L 7.3125 0 L 5.21875 -6.140625 L 3.09375 0 L 2.328125 0 Z M 0.671875 -5.671875 "/></g></g></g><g fill="#ffffff" fill-opacity="1"><g transform="translate(319.610848, 182.249988)"><g><path d="M 0.421875 0 L 0.421875 -0.203125 C 0.671875 -0.285156 0.832031 -0.453125 0.90625 -0.703125 C 0.976562 -0.960938 1.015625 -1.363281 1.015625 -1.90625 L 1.015625 -5.359375 C 1.015625 -5.796875 0.960938 -6.082031 0.859375 -6.21875 C 0.753906 -6.363281 0.609375 -6.476562 0.421875 -6.5625 L 0.421875 -6.765625 L 2.40625 -7.640625 L 2.546875 -7.515625 L 2.546875 -1.90625 C 2.546875 -1.363281 2.582031 -0.960938 2.65625 -0.703125 C 2.738281 -0.453125 2.90625 -0.285156 3.15625 -0.203125 L 3.15625 0 Z M 0.671875 -9.171875 C 0.671875 -9.453125 0.769531 -9.691406 0.96875 -9.890625 C 1.175781 -10.097656 1.414062 -10.203125 1.6875 -10.203125 C 1.988281 -10.203125 2.234375 -10.097656 2.421875 -9.890625 C 2.617188 -9.691406 2.71875 -9.453125 2.71875 -9.171875 C 2.71875 -8.890625 2.617188 -8.644531 2.421875 -8.4375 C 2.222656 -8.238281 1.976562 -8.140625 1.6875 -8.140625 C 1.414062 -8.140625 1.175781 -8.238281 0.96875 -8.4375 C 0.769531 -8.644531 0.671875 -8.890625 0.671875 -9.171875 Z M 0.671875 -9.171875 "/></g></g></g><g fill="#ffffff" fill-opacity="1"><g transform="translate(323.96085, 182.249988)"><g><path d="M 3.65625 0.1875 C 3.03125 0.175781 2.476562 -0.00390625 2 -0.359375 C 1.519531 -0.710938 1.144531 -1.160156 0.875 -1.703125 C 0.601562 -2.253906 0.46875 -2.84375 0.46875 -3.46875 C 0.46875 -4.238281 0.632812 -4.929688 0.96875 -5.546875 C 1.300781 -6.171875 1.78125 -6.664062 2.40625 -7.03125 C 3.03125 -7.40625 3.78125 -7.59375 4.65625 -7.59375 C 4.96875 -7.59375 5.253906 -7.554688 5.515625 -7.484375 C 5.785156 -7.410156 6.03125 -7.320312 6.25 -7.21875 L 6.25 -9.859375 C 6.25 -10.296875 6.195312 -10.582031 6.09375 -10.71875 C 5.988281 -10.863281 5.84375 -10.976562 5.65625 -11.0625 L 5.65625 -11.265625 L 7.640625 -12.140625 L 7.78125 -12.015625 L 7.78125 -1.90625 C 7.78125 -1.363281 7.816406 -0.960938 7.890625 -0.703125 C 7.972656 -0.453125 8.140625 -0.285156 8.390625 -0.203125 L 8.390625 0 L 6.859375 0 C 6.453125 0 6.25 -0.195312 6.25 -0.59375 L 6.25 -1.234375 C 6.0625 -1.015625 5.835938 -0.789062 5.578125 -0.5625 C 5.316406 -0.34375 5.023438 -0.160156 4.703125 -0.015625 C 4.390625 0.117188 4.039062 0.1875 3.65625 0.1875 Z M 1.9375 -4.6875 C 1.9375 -4.320312 1.972656 -3.914062 2.046875 -3.46875 C 2.117188 -3.019531 2.253906 -2.585938 2.453125 -2.171875 C 2.648438 -1.753906 2.921875 -1.40625 3.265625 -1.125 C 3.609375 -0.851562 4.050781 -0.71875 4.59375 -0.71875 C 4.914062 -0.71875 5.21875 -0.796875 5.5 -0.953125 C 5.78125 -1.117188 6.03125 -1.316406 6.25 -1.546875 L 6.25 -4.859375 C 6.25 -5.234375 6.148438 -5.601562 5.953125 -5.96875 C 5.753906 -6.34375 5.488281 -6.65625 5.15625 -6.90625 C 4.820312 -7.15625 4.441406 -7.28125 4.015625 -7.28125 C 3.460938 -7.28125 3.035156 -7.144531 2.734375 -6.875 C 2.441406 -6.601562 2.234375 -6.269531 2.109375 -5.875 C 1.992188 -5.476562 1.9375 -5.082031 1.9375 -4.6875 Z M 1.9375 -4.6875 "/></g></g></g><g fill="#ffffff" fill-opacity="1"><g transform="translate(333.365844, 182.249988)"><g><path d="M 4.015625 0.15625 C 3.597656 0.15625 3.179688 0.0820312 2.765625 -0.0625 C 2.347656 -0.21875 1.960938 -0.445312 1.609375 -0.75 C 1.265625 -1.050781 0.988281 -1.425781 0.78125 -1.875 C 0.570312 -2.320312 0.46875 -2.851562 0.46875 -3.46875 C 0.46875 -4.101562 0.578125 -4.675781 0.796875 -5.1875 C 1.023438 -5.695312 1.328125 -6.128906 1.703125 -6.484375 C 2.085938 -6.847656 2.507812 -7.125 2.96875 -7.3125 C 3.4375 -7.507812 3.914062 -7.609375 4.40625 -7.609375 C 5.09375 -7.609375 5.664062 -7.472656 6.125 -7.203125 C 6.582031 -6.929688 6.925781 -6.585938 7.15625 -6.171875 C 7.394531 -5.765625 7.515625 -5.34375 7.515625 -4.90625 L 1.828125 -4.90625 C 1.816406 -4.820312 1.804688 -4.738281 1.796875 -4.65625 C 1.796875 -4.582031 1.796875 -4.503906 1.796875 -4.421875 C 1.796875 -3.773438 1.921875 -3.195312 2.171875 -2.6875 C 2.429688 -2.175781 2.789062 -1.773438 3.25 -1.484375 C 3.71875 -1.203125 4.269531 -1.0625 4.90625 -1.0625 C 5.46875 -1.0625 5.960938 -1.171875 6.390625 -1.390625 C 6.816406 -1.609375 7.1875 -1.894531 7.5 -2.25 L 7.640625 -2.09375 C 7.410156 -1.75 7.125 -1.40625 6.78125 -1.0625 C 6.4375 -0.71875 6.035156 -0.425781 5.578125 -0.1875 C 5.117188 0.0390625 4.597656 0.15625 4.015625 0.15625 Z M 1.84375 -5.109375 L 6 -5.109375 C 5.9375 -5.523438 5.804688 -5.898438 5.609375 -6.234375 C 5.421875 -6.566406 5.179688 -6.832031 4.890625 -7.03125 C 4.609375 -7.226562 4.289062 -7.328125 3.9375 -7.328125 C 3.519531 -7.335938 3.164062 -7.238281 2.875 -7.03125 C 2.582031 -6.820312 2.351562 -6.546875 2.1875 -6.203125 C 2.019531 -5.867188 1.90625 -5.503906 1.84375 -5.109375 Z M 1.84375 -5.109375 "/></g></g></g><g fill="#ffffff" fill-opacity="1"><g transform="translate(189.497877, 208.726025)"><g><path d="M 0.75 0 L 0.75 -0.25 C 1.050781 -0.34375 1.242188 -0.539062 1.328125 -0.84375 C 1.421875 -1.15625 1.46875 -1.632812 1.46875 -2.28125 L 1.46875 -9.234375 C 1.46875 -9.960938 1.421875 -10.535156 1.328125 -10.953125 C 1.242188 -11.378906 1.113281 -11.691406 0.9375 -11.890625 C 0.757812 -12.097656 0.53125 -12.25 0.25 -12.34375 L 0.25 -12.59375 L 2.953125 -12.59375 L 7.390625 -5.21875 L 11.625 -12.59375 L 14.1875 -12.59375 L 14.1875 -12.34375 C 13.90625 -12.25 13.675781 -12.097656 13.5 -11.890625 C 13.320312 -11.691406 13.1875 -11.378906 13.09375 -10.953125 C 13 -10.535156 12.953125 -9.960938 12.953125 -9.234375 L 12.953125 -2.28125 C 12.953125 -1.632812 13 -1.15625 13.09375 -0.84375 C 13.1875 -0.539062 13.382812 -0.34375 13.6875 -0.25 L 13.6875 0 L 10.328125 0 L 10.328125 -0.25 C 10.628906 -0.34375 10.820312 -0.539062 10.90625 -0.84375 C 11 -1.15625 11.046875 -1.632812 11.046875 -2.28125 L 11.046875 -11 L 6.734375 -3.421875 L 6.3125 -3.421875 L 1.796875 -10.828125 L 1.796875 -3.359375 C 1.796875 -2.628906 1.84375 -2.054688 1.9375 -1.640625 C 2.039062 -1.222656 2.191406 -0.910156 2.390625 -0.703125 C 2.597656 -0.492188 2.859375 -0.34375 3.171875 -0.25 L 3.171875 0 Z M 0.75 0 "/></g></g></g><g fill="#ffffff" fill-opacity="1"><g transform="translate(210.170108, 208.726025)"><g><path d="M 0.84375 0 L 0.84375 -0.25 C 1.144531 -0.34375 1.335938 -0.539062 1.421875 -0.84375 C 1.515625 -1.15625 1.5625 -1.632812 1.5625 -2.28125 L 1.5625 -10.3125 C 1.5625 -10.957031 1.515625 -11.429688 1.421875 -11.734375 C 1.335938 -12.046875 1.144531 -12.25 0.84375 -12.34375 L 0.84375 -12.59375 L 4.1875 -12.59375 L 4.1875 -12.34375 C 3.894531 -12.25 3.703125 -12.046875 3.609375 -11.734375 C 3.515625 -11.429688 3.46875 -10.957031 3.46875 -10.3125 L 3.46875 -2.28125 C 3.46875 -1.632812 3.515625 -1.15625 3.609375 -0.84375 C 3.703125 -0.539062 3.894531 -0.34375 4.1875 -0.25 L 4.1875 0 Z M 0.84375 0 "/></g></g></g><g fill="#ffffff" fill-opacity="1"><g transform="translate(220.858812, 208.726025)"><g><path d="M 10.328125 0.140625 L 1.890625 -10.515625 L 1.890625 -3.359375 C 1.890625 -2.628906 1.9375 -2.054688 2.03125 -1.640625 C 2.125 -1.222656 2.273438 -0.910156 2.484375 -0.703125 C 2.691406 -0.492188 2.953125 -0.34375 3.265625 -0.25 L 3.265625 0 L 0.84375 0 L 0.84375 -0.25 C 1.144531 -0.34375 1.335938 -0.539062 1.421875 -0.84375 C 1.515625 -1.15625 1.5625 -1.632812 1.5625 -2.28125 L 1.5625 -10.3125 C 1.5625 -10.957031 1.5 -11.429688 1.375 -11.734375 C 1.257812 -12.046875 1.007812 -12.25 0.625 -12.34375 L 0.625 -12.59375 L 2.65625 -12.59375 L 10.21875 -3.125 L 10.21875 -9.234375 C 10.21875 -9.960938 10.171875 -10.535156 10.078125 -10.953125 C 9.984375 -11.378906 9.832031 -11.691406 9.625 -11.890625 C 9.425781 -12.097656 9.171875 -12.25 8.859375 -12.34375 L 8.859375 -12.59375 L 11.28125 -12.59375 L 11.28125 -12.34375 C 10.976562 -12.25 10.78125 -12.046875 10.6875 -11.734375 C 10.601562 -11.429688 10.5625 -10.957031 10.5625 -10.3125 L 10.5625 0.140625 Z M 10.328125 0.140625 "/></g></g></g><g fill="#ffffff" fill-opacity="1"><g transform="translate(238.419066, 208.726025)"><g><path d="M 0.84375 0 L 0.84375 -0.25 C 1.144531 -0.34375 1.335938 -0.539062 1.421875 -0.84375 C 1.515625 -1.15625 1.5625 -1.632812 1.5625 -2.28125 L 1.5625 -10.3125 C 1.5625 -10.957031 1.515625 -11.429688 1.421875 -11.734375 C 1.335938 -12.046875 1.144531 -12.25 0.84375 -12.34375 L 0.84375 -12.59375 L 4.1875 -12.59375 L 4.1875 -12.34375 C 3.894531 -12.25 3.703125 -12.046875 3.609375 -11.734375 C 3.515625 -11.429688 3.46875 -10.957031 3.46875 -10.3125 L 3.46875 -2.28125 C 3.46875 -1.632812 3.515625 -1.15625 3.609375 -0.84375 C 3.703125 -0.539062 3.894531 -0.34375 4.1875 -0.25 L 4.1875 0 Z M 0.84375 0 "/></g></g></g><g fill="#ffffff" fill-opacity="1"><g transform="translate(249.107767, 208.726025)"><g><path d="M 5.140625 0.1875 C 4.222656 0.1875 3.367188 0.0546875 2.578125 -0.203125 C 1.785156 -0.460938 1.160156 -0.757812 0.703125 -1.09375 L 0.625 -3.796875 L 0.859375 -3.828125 C 1.109375 -3.148438 1.453125 -2.535156 1.890625 -1.984375 C 2.335938 -1.441406 2.867188 -1.007812 3.484375 -0.6875 C 4.109375 -0.363281 4.816406 -0.203125 5.609375 -0.203125 C 6.035156 -0.203125 6.425781 -0.285156 6.78125 -0.453125 C 7.144531 -0.628906 7.441406 -0.882812 7.671875 -1.21875 C 7.898438 -1.5625 8.015625 -1.976562 8.015625 -2.46875 C 8.015625 -2.90625 7.882812 -3.289062 7.625 -3.625 C 7.375 -3.957031 7.050781 -4.242188 6.65625 -4.484375 C 6.269531 -4.734375 5.859375 -4.953125 5.421875 -5.140625 C 4.992188 -5.328125 4.601562 -5.492188 4.25 -5.640625 C 3.632812 -5.898438 3.066406 -6.160156 2.546875 -6.421875 C 2.035156 -6.691406 1.625 -7.03125 1.3125 -7.4375 C 1 -7.851562 0.84375 -8.410156 0.84375 -9.109375 C 0.84375 -10.222656 1.257812 -11.101562 2.09375 -11.75 C 2.925781 -12.394531 4.050781 -12.71875 5.46875 -12.71875 C 6.144531 -12.71875 6.769531 -12.648438 7.34375 -12.515625 C 7.925781 -12.390625 8.453125 -12.207031 8.921875 -11.96875 L 9 -9.625 L 8.796875 -9.5625 C 8.429688 -10.476562 7.890625 -11.179688 7.171875 -11.671875 C 6.460938 -12.171875 5.664062 -12.421875 4.78125 -12.421875 C 4.0625 -12.421875 3.453125 -12.21875 2.953125 -11.8125 C 2.460938 -11.414062 2.21875 -10.863281 2.21875 -10.15625 C 2.21875 -9.757812 2.316406 -9.410156 2.515625 -9.109375 C 2.710938 -8.816406 2.972656 -8.5625 3.296875 -8.34375 C 3.628906 -8.132812 3.984375 -7.945312 4.359375 -7.78125 C 4.742188 -7.625 5.113281 -7.472656 5.46875 -7.328125 C 5.925781 -7.148438 6.390625 -6.957031 6.859375 -6.75 C 7.335938 -6.539062 7.773438 -6.296875 8.171875 -6.015625 C 8.566406 -5.742188 8.882812 -5.414062 9.125 -5.03125 C 9.363281 -4.65625 9.484375 -4.195312 9.484375 -3.65625 C 9.484375 -3.039062 9.359375 -2.492188 9.109375 -2.015625 C 8.859375 -1.535156 8.519531 -1.132812 8.09375 -0.8125 C 7.675781 -0.488281 7.207031 -0.238281 6.6875 -0.0625 C 6.175781 0.101562 5.660156 0.1875 5.140625 0.1875 Z M 5.140625 0.1875 "/></g></g></g><g fill="#ffffff" fill-opacity="1"><g transform="translate(264.707287, 208.726025)"><g><path d="M 3.390625 0 L 3.390625 -0.25 C 3.679688 -0.34375 3.875 -0.539062 3.96875 -0.84375 C 4.0625 -1.15625 4.109375 -1.632812 4.109375 -2.28125 L 4.109375 -12.28125 L 3.546875 -12.28125 C 2.742188 -12.28125 2.113281 -12.144531 1.65625 -11.875 C 1.195312 -11.601562 0.800781 -11.109375 0.46875 -10.390625 L 0.25 -10.421875 L 0.359375 -12.59375 L 9.734375 -12.59375 L 9.84375 -10.421875 L 9.625 -10.390625 C 9.289062 -11.109375 8.894531 -11.601562 8.4375 -11.875 C 7.988281 -12.144531 7.359375 -12.28125 6.546875 -12.28125 L 6.03125 -12.28125 L 6.03125 -2.28125 C 6.03125 -1.632812 6.070312 -1.15625 6.15625 -0.84375 C 6.25 -0.539062 6.445312 -0.34375 6.75 -0.25 L 6.75 0 Z M 3.390625 0 "/></g></g></g><g fill="#ffffff" fill-opacity="1"><g transform="translate(280.432727, 208.726025)"><g><path d="M 10.015625 0.125 C 9.515625 0.125 9.117188 0.015625 8.828125 -0.203125 C 8.535156 -0.429688 8.273438 -0.769531 8.046875 -1.21875 C 7.828125 -1.675781 7.578125 -2.253906 7.296875 -2.953125 C 7.023438 -3.609375 6.800781 -4.160156 6.625 -4.609375 C 6.445312 -5.066406 6.269531 -5.429688 6.09375 -5.703125 C 5.925781 -5.972656 5.722656 -6.164062 5.484375 -6.28125 C 5.242188 -6.40625 4.925781 -6.46875 4.53125 -6.46875 L 3.46875 -6.46875 L 3.46875 -2.28125 C 3.46875 -1.632812 3.515625 -1.15625 3.609375 -0.84375 C 3.703125 -0.539062 3.894531 -0.34375 4.1875 -0.25 L 4.1875 0 L 0.84375 0 L 0.84375 -0.25 C 1.144531 -0.34375 1.335938 -0.539062 1.421875 -0.84375 C 1.515625 -1.15625 1.5625 -1.632812 1.5625 -2.28125 L 1.5625 -10.3125 C 1.5625 -10.957031 1.515625 -11.429688 1.421875 -11.734375 C 1.335938 -12.046875 1.144531 -12.25 0.84375 -12.34375 L 0.84375 -12.59375 L 4.625 -12.59375 C 5.613281 -12.59375 6.414062 -12.507812 7.03125 -12.34375 C 7.644531 -12.1875 8.117188 -11.972656 8.453125 -11.703125 C 8.796875 -11.429688 9.03125 -11.125 9.15625 -10.78125 C 9.289062 -10.4375 9.359375 -10.082031 9.359375 -9.71875 C 9.359375 -8.894531 9.066406 -8.191406 8.484375 -7.609375 C 7.910156 -7.035156 7.023438 -6.675781 5.828125 -6.53125 C 6.335938 -6.46875 6.753906 -6.363281 7.078125 -6.21875 C 7.410156 -6.082031 7.691406 -5.878906 7.921875 -5.609375 C 8.160156 -5.335938 8.375 -4.992188 8.5625 -4.578125 C 8.757812 -4.160156 8.976562 -3.65625 9.21875 -3.0625 C 9.539062 -2.269531 9.789062 -1.664062 9.96875 -1.25 C 10.144531 -0.84375 10.3125 -0.570312 10.46875 -0.4375 C 10.625 -0.300781 10.8125 -0.234375 11.03125 -0.234375 C 11.082031 -0.234375 11.128906 -0.234375 11.171875 -0.234375 C 11.210938 -0.234375 11.253906 -0.238281 11.296875 -0.25 L 11.296875 0 C 11.097656 0.0507812 10.867188 0.0820312 10.609375 0.09375 C 10.359375 0.113281 10.160156 0.125 10.015625 0.125 Z M 3.46875 -6.75 L 4.625 -6.75 C 5.3125 -6.75 5.859375 -6.863281 6.265625 -7.09375 C 6.679688 -7.320312 6.984375 -7.628906 7.171875 -8.015625 C 7.359375 -8.410156 7.453125 -8.832031 7.453125 -9.28125 C 7.453125 -9.78125 7.34375 -10.257812 7.125 -10.71875 C 6.90625 -11.175781 6.5625 -11.554688 6.09375 -11.859375 C 5.632812 -12.160156 5.023438 -12.3125 4.265625 -12.3125 C 4.015625 -12.3125 3.75 -12.296875 3.46875 -12.265625 Z M 3.46875 -6.75 "/></g></g></g><g fill="#ffffff" fill-opacity="1"><g transform="translate(297.201479, 208.726025)"><g><path d="M 0.84375 0 L 0.84375 -0.25 C 1.144531 -0.34375 1.335938 -0.539062 1.421875 -0.84375 C 1.515625 -1.15625 1.5625 -1.632812 1.5625 -2.28125 L 1.5625 -10.3125 C 1.5625 -10.957031 1.515625 -11.429688 1.421875 -11.734375 C 1.335938 -12.046875 1.144531 -12.25 0.84375 -12.34375 L 0.84375 -12.59375 L 4.1875 -12.59375 L 4.1875 -12.34375 C 3.894531 -12.25 3.703125 -12.046875 3.609375 -11.734375 C 3.515625 -11.429688 3.46875 -10.957031 3.46875 -10.3125 L 3.46875 -2.28125 C 3.46875 -1.632812 3.515625 -1.15625 3.609375 -0.84375 C 3.703125 -0.539062 3.894531 -0.34375 4.1875 -0.25 L 4.1875 0 Z M 0.84375 0 "/></g></g></g><g fill="#ffffff" fill-opacity="1"><g transform="translate(307.89018, 208.726025)"><g><path d="M 0.84375 0 L 0.84375 -0.25 C 1.144531 -0.34375 1.335938 -0.539062 1.421875 -0.84375 C 1.515625 -1.15625 1.5625 -1.632812 1.5625 -2.28125 L 1.5625 -10.3125 C 1.5625 -10.957031 1.515625 -11.429688 1.421875 -11.734375 C 1.335938 -12.046875 1.144531 -12.25 0.84375 -12.34375 L 0.84375 -12.59375 L 9.484375 -12.59375 L 9.6875 -10.0625 L 9.453125 -10.015625 C 9.085938 -10.898438 8.601562 -11.503906 8 -11.828125 C 7.394531 -12.148438 6.585938 -12.3125 5.578125 -12.3125 L 3.46875 -12.3125 L 3.46875 -6.90625 L 5.203125 -6.90625 C 5.929688 -6.90625 6.503906 -6.953125 6.921875 -7.046875 C 7.347656 -7.148438 7.660156 -7.300781 7.859375 -7.5 C 8.066406 -7.707031 8.21875 -7.96875 8.3125 -8.28125 L 8.5625 -8.28125 L 8.5625 -5.25 L 8.3125 -5.25 C 8.21875 -5.5625 8.066406 -5.820312 7.859375 -6.03125 C 7.660156 -6.238281 7.347656 -6.390625 6.921875 -6.484375 C 6.503906 -6.578125 5.929688 -6.625 5.203125 -6.625 L 3.46875 -6.625 L 3.46875 -1.1875 C 3.46875 -0.582031 3.769531 -0.28125 4.375 -0.28125 L 6.109375 -0.28125 C 7.015625 -0.28125 7.78125 -0.445312 8.40625 -0.78125 C 9.03125 -1.125 9.507812 -1.75 9.84375 -2.65625 L 10.078125 -2.625 L 9.953125 0 Z M 0.84375 0 "/></g></g></g><g fill="#ffffff" fill-opacity="1"><g transform="translate(324.245205, 208.726025)"><g><path d="M 5.140625 0.1875 C 4.222656 0.1875 3.367188 0.0546875 2.578125 -0.203125 C 1.785156 -0.460938 1.160156 -0.757812 0.703125 -1.09375 L 0.625 -3.796875 L 0.859375 -3.828125 C 1.109375 -3.148438 1.453125 -2.535156 1.890625 -1.984375 C 2.335938 -1.441406 2.867188 -1.007812 3.484375 -0.6875 C 4.109375 -0.363281 4.816406 -0.203125 5.609375 -0.203125 C 6.035156 -0.203125 6.425781 -0.285156 6.78125 -0.453125 C 7.144531 -0.628906 7.441406 -0.882812 7.671875 -1.21875 C 7.898438 -1.5625 8.015625 -1.976562 8.015625 -2.46875 C 8.015625 -2.90625 7.882812 -3.289062 7.625 -3.625 C 7.375 -3.957031 7.050781 -4.242188 6.65625 -4.484375 C 6.269531 -4.734375 5.859375 -4.953125 5.421875 -5.140625 C 4.992188 -5.328125 4.601562 -5.492188 4.25 -5.640625 C 3.632812 -5.898438 3.066406 -6.160156 2.546875 -6.421875 C 2.035156 -6.691406 1.625 -7.03125 1.3125 -7.4375 C 1 -7.851562 0.84375 -8.410156 0.84375 -9.109375 C 0.84375 -10.222656 1.257812 -11.101562 2.09375 -11.75 C 2.925781 -12.394531 4.050781 -12.71875 5.46875 -12.71875 C 6.144531 -12.71875 6.769531 -12.648438 7.34375 -12.515625 C 7.925781 -12.390625 8.453125 -12.207031 8.921875 -11.96875 L 9 -9.625 L 8.796875 -9.5625 C 8.429688 -10.476562 7.890625 -11.179688 7.171875 -11.671875 C 6.460938 -12.171875 5.664062 -12.421875 4.78125 -12.421875 C 4.0625 -12.421875 3.453125 -12.21875 2.953125 -11.8125 C 2.460938 -11.414062 2.21875 -10.863281 2.21875 -10.15625 C 2.21875 -9.757812 2.316406 -9.410156 2.515625 -9.109375 C 2.710938 -8.816406 2.972656 -8.5625 3.296875 -8.34375 C 3.628906 -8.132812 3.984375 -7.945312 4.359375 -7.78125 C 4.742188 -7.625 5.113281 -7.472656 5.46875 -7.328125 C 5.925781 -7.148438 6.390625 -6.957031 6.859375 -6.75 C 7.335938 -6.539062 7.773438 -6.296875 8.171875 -6.015625 C 8.566406 -5.742188 8.882812 -5.414062 9.125 -5.03125 C 9.363281 -4.65625 9.484375 -4.195312 9.484375 -3.65625 C 9.484375 -3.039062 9.359375 -2.492188 9.109375 -2.015625 C 8.859375 -1.535156 8.519531 -1.132812 8.09375 -0.8125 C 7.675781 -0.488281 7.207031 -0.238281 6.6875 -0.0625 C 6.175781 0.101562 5.660156 0.1875 5.140625 0.1875 Z M 5.140625 0.1875 "/></g></g></g></svg>